<svg xmlns="http://www.w3.org/2000/svg" width="164" height="84" viewBox="0 0 164 84">
  <g id="Group_1" data-name="Group 1" transform="translate(-181 -17)">
    <g id="Ellipse_1" data-name="Ellipse 1" transform="translate(192 39)" fill="rgba(0,0,0,0)" stroke="#707070" stroke-width="2">
      <ellipse cx="7" cy="7.5" rx="7" ry="7.5" stroke="none"/>
      <ellipse cx="7" cy="7.5" rx="6" ry="6.5" fill="none"/>
    </g>
    <g id="Ellipse_2" data-name="Ellipse 2" transform="translate(246 86)" fill="rgba(0,0,0,0)" stroke="#707070" stroke-width="2">
      <ellipse cx="7" cy="7.5" rx="7" ry="7.5" stroke="none"/>
      <ellipse cx="7" cy="7.5" rx="6" ry="6.5" fill="none"/>
    </g>
    <g id="Ellipse_3" data-name="Ellipse 3" transform="translate(321 39)" fill="rgba(0,0,0,0)" stroke="#707070" stroke-width="2">
      <ellipse cx="7" cy="7.5" rx="7" ry="7.5" stroke="none"/>
      <ellipse cx="7" cy="7.5" rx="6" ry="6.5" fill="none"/>
    </g>
    <g id="Ellipse_4" data-name="Ellipse 4" transform="translate(254 26)" fill="rgba(0,0,0,0)" stroke="#707070" stroke-width="2">
      <ellipse cx="7" cy="7.5" rx="7" ry="7.5" stroke="none"/>
      <ellipse cx="7" cy="7.5" rx="6" ry="6.5" fill="none"/>
    </g>
    <line id="Line_1" data-name="Line 1" x2="44" y2="38" transform="translate(203.5 51.5)" fill="none" stroke="#707070" stroke-width="1"/>
    <line id="Line_2" data-name="Line 2" y1="46" x2="3" transform="translate(255.5 40.5)" fill="none" stroke="#707070" stroke-width="1"/>
    <line id="Line_3" data-name="Line 3" x2="54" y2="10" transform="translate(267.5 34.5)" fill="none" stroke="#707070" stroke-width="1"/>
    <g id="Rectangle_5" data-name="Rectangle 5" transform="translate(181 17)" fill="rgba(255,255,255,0)" stroke="#707070" stroke-width="1">
      <rect width="18" height="14" rx="4" stroke="none"/>
      <rect x="0.5" y="0.5" width="17" height="13" rx="3.5" fill="none"/>
    </g>
    <line id="Line_4" data-name="Line 4" x2="2" y2="3" transform="translate(196.5 30.5)" fill="none" stroke="#707070" stroke-linecap="round" stroke-width="1"/>
    <line id="Line_5" data-name="Line 5" y2="6" transform="translate(198.5 27.5)" fill="none" stroke="#707070" stroke-linecap="round" stroke-width="1"/>
    <line id="Line_6" data-name="Line 6" x2="11" transform="translate(184.5 27.5)" fill="none" stroke="#dbdada" stroke-width="0.5"/>
    <line id="Line_7" data-name="Line 7" x2="11" transform="translate(184.5 25.5)" fill="none" stroke="#dbdada" stroke-width="0.5"/>
    <line id="Line_8" data-name="Line 8" x2="11" transform="translate(184.5 23.5)" fill="none" stroke="#dbdada" stroke-width="0.5"/>
    <line id="Line_9" data-name="Line 9" x2="11" transform="translate(184.5 21.5)" fill="none" stroke="#dbdada" stroke-width="0.5"/>
    <line id="Line_10" data-name="Line 10" x2="11" transform="translate(184.5 19.5)" fill="none" stroke="#dbdada" stroke-width="0.5"/>
    <g id="Rectangle_6" data-name="Rectangle 6" transform="translate(327 18)" fill="rgba(255,255,255,0)" stroke="#707070" stroke-width="1">
      <rect width="18" height="14" rx="4" stroke="none"/>
      <rect x="0.5" y="0.5" width="17" height="13" rx="3.5" fill="none"/>
    </g>
    <line id="Line_11" data-name="Line 11" x1="2" y2="3" transform="translate(327.5 31.5)" fill="none" stroke="#707070" stroke-linecap="round" stroke-width="1"/>
    <line id="Line_12" data-name="Line 12" y2="6" transform="translate(327.5 28.5)" fill="none" stroke="#707070" stroke-linecap="round" stroke-width="1"/>
    <line id="Line_13" data-name="Line 13" x1="11" transform="translate(330.5 28.5)" fill="none" stroke="#dbdada" stroke-width="0.5"/>
    <line id="Line_14" data-name="Line 14" x1="11" transform="translate(330.5 26.5)" fill="none" stroke="#dbdada" stroke-width="0.5"/>
    <line id="Line_15" data-name="Line 15" x1="11" transform="translate(330.5 24.5)" fill="none" stroke="#dbdada" stroke-width="0.5"/>
    <line id="Line_16" data-name="Line 16" x1="11" transform="translate(330.5 22.5)" fill="none" stroke="#dbdada" stroke-width="0.5"/>
    <line id="Line_17" data-name="Line 17" x1="11" transform="translate(330.5 20.5)" fill="none" stroke="#dbdada" stroke-width="0.5"/>
  </g>
</svg>
